<svg width="240" height="56" viewBox="0 0 240 56" fill="none" xmlns="http://www.w3.org/2000/svg">
<rect width="56" height="56" rx="28" fill="black"/>
<mask id="mask0" mask-type="alpha" maskUnits="userSpaceOnUse" x="0" y="0" width="56" height="56">
<rect width="56" height="56" rx="28" fill="white"/>
</mask>
<g mask="url(#mask0)">
<rect x="-14" y="-14" width="84" height="84" fill="#0F4C81"/>
<path d="M26.0552 17.2589H28.1402V18.9089C28.1402 19.2489 28.0302 19.4939 27.8102 19.6439C27.6002 19.7939 27.3152 19.8689 26.9552 19.8689H26.0552V24.4289C26.0552 24.9789 25.8652 25.4389 25.4852 25.8089C25.1152 26.1889 24.6552 26.3789 24.1052 26.3789H23.0102V25.7939C22.3902 26.0239 21.8552 26.1639 21.4052 26.2139C20.9552 26.2639 20.5352 26.2889 20.1452 26.2889H16.0652C15.7252 26.2889 15.4652 26.1989 15.2852 26.0189C15.1052 25.8489 15.0152 25.5939 15.0152 25.2539V12.6089H18.0602V23.9639H20.2202C20.6302 23.9639 21.0752 23.9339 21.5552 23.8739C22.0252 23.8039 22.5102 23.6839 23.0102 23.5139V12.5939H26.0552V17.2589ZM39.6639 15.0689H41.6439V16.7789C41.6439 17.0889 41.5489 17.3139 41.3589 17.4539C41.1789 17.5939 40.9239 17.6639 40.5939 17.6639H39.6639V19.5089C39.6639 19.8189 39.5589 20.0689 39.3489 20.2589C39.1389 20.4389 38.8589 20.5289 38.5089 20.5289H36.6189V20.1389C36.2789 20.2389 35.9289 20.3089 35.5689 20.3489C35.1889 20.3989 34.7589 20.4239 34.2789 20.4239H29.4489C29.1589 20.4239 28.9389 20.3539 28.7889 20.2139C28.6389 20.0739 28.5639 19.8589 28.5639 19.5689V15.3689H32.9439V14.9639H29.3589C29.0689 14.9639 28.8539 14.9039 28.7139 14.7839C28.5839 14.6639 28.5189 14.4589 28.5189 14.1689V12.6239H35.9889V16.8839C35.9889 17.1739 35.9189 17.3789 35.7789 17.4989C35.6489 17.6089 35.4389 17.6639 35.1489 17.6639H31.6089V18.0989H34.4739C34.7639 18.0989 35.1289 18.0739 35.5689 18.0239C35.9789 17.9839 36.3289 17.9189 36.6189 17.8289V12.5939H39.6639V15.0689ZM39.9639 24.3089C39.9639 24.9789 39.7239 25.4939 39.2439 25.8539C38.7739 26.2239 38.1839 26.4089 37.4739 26.4089H31.0839C30.3839 26.4089 29.7939 26.2239 29.3139 25.8539C28.8339 25.4939 28.5939 24.9789 28.5939 24.3089V22.9139C28.5939 22.2439 28.8339 21.7339 29.3139 21.3839C29.7939 21.0239 30.3839 20.8439 31.0839 20.8439H37.4739C38.1839 20.8439 38.7739 21.0239 39.2439 21.3839C39.7239 21.7339 39.9639 22.2439 39.9639 22.9139V24.3089ZM36.9039 23.5739C36.9039 23.4239 36.8589 23.3039 36.7689 23.2139C36.6789 23.1239 36.4739 23.0789 36.1539 23.0789H32.4039C32.0939 23.0789 31.8889 23.1239 31.7889 23.2139C31.6989 23.3039 31.6539 23.4239 31.6539 23.5739V23.6189C31.6539 23.7689 31.6989 23.8839 31.7889 23.9639C31.8889 24.0539 32.0939 24.0989 32.4039 24.0989H36.1539C36.4739 24.0989 36.6789 24.0539 36.7689 23.9639C36.8589 23.8839 36.9039 23.7689 36.9039 23.6189V23.5739ZM18.6002 36.2439C18.2902 36.8139 17.6952 37.2939 16.8152 37.6839C15.9452 38.0739 15.1452 38.2739 14.4152 38.2839V35.8239C15.0452 35.7539 15.6352 35.4289 16.1852 34.8489C16.7452 34.2589 17.0252 33.2439 17.0252 31.8039V31.5789H20.1302V31.8039C20.1302 33.2439 20.3902 34.2589 20.9102 34.8489C21.4402 35.4289 22.0252 35.7539 22.6652 35.8239V38.2839C21.9352 38.2739 21.1452 38.0739 20.2952 37.6839C19.4552 37.2939 18.8902 36.8139 18.6002 36.2439ZM26.0702 33.6639H28.0502V35.3739C28.0502 35.6839 27.9552 35.9089 27.7652 36.0489C27.5852 36.1889 27.3302 36.2589 27.0002 36.2589H26.0702V37.2189C26.0702 37.5289 25.9652 37.7789 25.7552 37.9689C25.5452 38.1489 25.2652 38.2389 24.9152 38.2389H23.0252V31.5939H26.0702V33.6639ZM26.0852 42.1539C26.0852 42.4439 26.0152 42.6489 25.8752 42.7689C25.7452 42.8889 25.5352 42.9489 25.2452 42.9489H18.2552V43.3539H26.2052V44.5389C26.2052 44.8289 26.1302 45.0389 25.9802 45.1689C25.8302 45.3089 25.6102 45.3789 25.3202 45.3789H16.0952C15.8052 45.3789 15.5852 45.3089 15.4352 45.1689C15.2852 45.0389 15.2102 44.8289 15.2102 44.5389V41.0289H23.0252V40.6389H16.0202C15.7302 40.6389 15.5152 40.5789 15.3752 40.4589C15.2452 40.3389 15.1802 40.1339 15.1802 39.8439V38.6289H26.0852V42.1539ZM40.8189 43.6089C40.8189 44.0689 40.6539 44.4739 40.3239 44.8239C39.9939 45.1839 39.5689 45.3639 39.0489 45.3639H38.0439V38.8239H37.6389V43.8639C37.6389 44.3039 37.4939 44.6639 37.2039 44.9439C36.9239 45.2239 36.5489 45.3639 36.0789 45.3639H34.8639V44.8689C34.4739 45.0189 34.0339 45.1289 33.5439 45.1989C33.0439 45.2789 32.5289 45.3189 31.9989 45.3189H29.5689C29.2289 45.3189 28.9689 45.2289 28.7889 45.0489C28.6089 44.8789 28.5189 44.6239 28.5189 44.2839V37.1139H31.4439V33.9639H29.2989C29.0089 33.9639 28.7989 33.9039 28.6689 33.7839C28.5389 33.6639 28.4739 33.4589 28.4739 33.1689V31.6239H34.3839V38.6139C34.3839 38.9039 34.3139 39.1089 34.1739 39.2289C34.0439 39.3489 33.8339 39.4089 33.5439 39.4089H31.4289V42.9939H32.1939C32.5239 42.9939 32.9439 42.9539 33.4539 42.8739C33.9539 42.7939 34.4239 42.6789 34.8639 42.5289V31.5939H37.6389V36.3189H38.0439V31.5939H40.8189V43.6089Z" fill="white"/>
</g>
<path d="M70.6811 35.82C68.3951 35.82 67.3331 35.514 67.3331 34.83C67.3331 34.146 68.3951 33.858 70.6811 33.858C72.9851 33.858 74.0471 34.146 74.0471 34.83C74.0471 35.514 72.9851 35.82 70.6811 35.82ZM70.6811 32.112C67.0451 32.112 64.9391 33.048 64.9391 34.83C64.9391 36.594 67.0451 37.548 70.6811 37.548C74.3351 37.548 76.4411 36.594 76.4411 34.83C76.4411 33.048 74.3351 32.112 70.6811 32.112ZM71.8871 29.52V28.494H76.6211V26.694H67.4411V25.794H76.1171V24.066H67.4411V23.202H76.4951V21.402H65.0831V28.494H69.5111V29.52H63.2111V31.374H78.2051V29.52H71.8871ZM93.5577 20.988H91.1637V33.066H93.5577V20.988ZM89.9397 28.674C87.2397 27.81 86.0877 25.686 86.0877 23.49V21.888H83.6757V23.49C83.6757 25.704 82.4877 28.026 79.7337 28.962L80.9397 30.852C82.8657 30.186 84.1617 28.836 84.9177 27.162C85.6377 28.71 86.8977 29.934 88.7337 30.564L89.9397 28.674ZM84.8997 35.37V31.914H82.5237V37.26H93.9717V35.37H84.8997ZM103.834 22.95C106.246 22.95 107.38 23.292 107.38 24.03C107.38 24.804 106.246 25.128 103.834 25.128C101.44 25.128 100.306 24.804 100.306 24.03C100.306 23.292 101.44 22.95 103.834 22.95ZM103.834 26.856C107.632 26.856 109.846 25.866 109.846 24.03C109.846 22.212 107.632 21.204 103.834 21.204C100.054 21.204 97.8403 22.212 97.8403 24.03C97.8403 25.866 100.054 26.856 103.834 26.856ZM100.432 34.704H109.504V30.438H98.0563V32.184H107.164V33.066H98.0743V37.422H109.936V35.64H100.432V34.704ZM96.3463 27.648V29.502H111.322V27.648H96.3463ZM128.093 25.236C125.537 24.768 124.385 23.436 124.385 22.068V21.42H121.919V22.068C121.919 23.544 120.785 24.966 118.157 25.506L119.183 27.306C121.145 26.874 122.477 25.902 123.197 24.624C123.935 25.776 125.231 26.658 127.085 27.036L128.093 25.236ZM129.029 35.496H122.405V34.362H129.029V35.496ZM129.029 32.58H122.405V31.536H124.493V29.628C125.753 29.52 127.031 29.376 128.273 29.16L128.129 27.486C124.655 27.936 120.677 27.936 117.617 27.936L117.887 29.826C119.183 29.826 120.623 29.826 122.135 29.754V31.248H120.065V37.35H131.387V31.248H129.029V32.58ZM129.011 20.988V30.51H131.387V20.988H129.011ZM142.653 27.306H140.799C141.195 25.956 141.339 24.498 141.339 22.932H134.841V24.822H138.981C138.693 28.062 137.235 30.456 133.923 32.436L135.273 34.11C137.613 32.742 139.125 31.104 140.061 29.214H142.653V36.81H144.867V21.33H142.653V27.306ZM146.145 20.952V37.53H148.395V20.952H146.145ZM153.956 34.11C153.8 34.746 153.578 35.442 153.29 36.198C153.002 36.954 152.708 37.662 152.408 38.322H150.482C150.65 37.614 150.818 36.858 150.986 36.054C151.154 35.25 151.28 34.536 151.364 33.912H153.83L153.956 34.11ZM163.386 22.536H161.01V33.48H162.45C164.862 33.48 167.526 33.336 170.28 32.76L170.046 30.816C167.724 31.266 165.474 31.446 163.386 31.5V22.536ZM175.806 27.216H173.484V20.952H171.108V37.512H173.484V29.178H175.806V27.216ZM177.659 25.164V30.276H179.081C182.393 30.276 184.499 30.204 186.803 29.772L186.605 27.864C184.535 28.242 182.717 28.35 180.017 28.368V26.928H185.201V21.942H177.641V23.85H182.861V25.164H177.659ZM184.661 35.748C182.501 35.748 181.385 35.334 181.385 34.416C181.385 33.498 182.501 33.084 184.661 33.084C186.821 33.084 187.937 33.498 187.937 34.416C187.937 35.334 186.821 35.748 184.661 35.748ZM184.661 31.266C181.205 31.266 179.045 32.418 179.045 34.416C179.045 36.396 181.205 37.566 184.661 37.566C188.117 37.566 190.277 36.396 190.277 34.416C190.277 32.418 188.117 31.266 184.661 31.266ZM190.115 24.84V20.988H187.739V30.924H190.115V26.784H192.311V24.84H190.115ZM203.452 27.216C200.788 26.46 199.69 24.57 199.69 22.554V21.564H197.278V22.608C197.278 24.732 196.144 26.766 193.408 27.594L194.542 29.484C196.486 28.872 197.8 27.63 198.538 26.028C199.24 27.45 200.464 28.53 202.246 29.07L203.452 27.216ZM198.106 34.596H206.674V30.132H195.73V31.95H204.334V32.886H195.748V37.422H207.16V35.586H198.106V34.596ZM206.674 24.21V20.988H204.298V29.484H206.674V26.136H208.852V24.21H206.674ZM212.936 28.998H216.878V22.572H210.614V24.48H214.592V27.126H210.632V33.876H211.802C213.8 33.876 215.6 33.822 217.724 33.48L217.544 31.554C215.888 31.806 214.448 31.896 212.936 31.932V28.998ZM222.152 20.952V27.216H220.658V21.258H218.444V36.756H220.658V29.124H222.152V37.53H224.402V20.952H222.152ZM228.397 31.086C228.397 30.486 228.523 29.982 228.775 29.574C229.027 29.166 229.459 28.74 230.071 28.296C230.611 27.912 230.995 27.582 231.223 27.306C231.463 27.018 231.583 26.682 231.583 26.298C231.583 25.914 231.439 25.626 231.151 25.434C230.875 25.23 230.485 25.128 229.981 25.128C229.477 25.128 228.979 25.206 228.487 25.362C227.995 25.518 227.491 25.728 226.975 25.992L226.021 24.066C226.609 23.742 227.245 23.478 227.929 23.274C228.613 23.07 229.363 22.968 230.179 22.968C231.427 22.968 232.393 23.268 233.077 23.868C233.773 24.468 234.121 25.23 234.121 26.154C234.121 26.646 234.043 27.072 233.887 27.432C233.731 27.792 233.497 28.128 233.185 28.44C232.873 28.74 232.483 29.064 232.015 29.412C231.667 29.664 231.397 29.88 231.205 30.06C231.013 30.24 230.881 30.414 230.809 30.582C230.749 30.75 230.719 30.96 230.719 31.212V31.734H228.397V31.086ZM228.109 34.74C228.109 34.188 228.259 33.804 228.559 33.588C228.859 33.36 229.225 33.246 229.657 33.246C230.077 33.246 230.437 33.36 230.737 33.588C231.037 33.804 231.187 34.188 231.187 34.74C231.187 35.268 231.037 35.652 230.737 35.892C230.437 36.12 230.077 36.234 229.657 36.234C229.225 36.234 228.859 36.12 228.559 35.892C228.259 35.652 228.109 35.268 228.109 34.74Z" fill="black"/>
</svg>
