<svg width="512" height="512" viewBox="0 0 512 512" fill="none" xmlns="http://www.w3.org/2000/svg">
<path d="M256 0C114.84 0 0 114.84 0 256C0 397.16 114.84 512 256 512C397.16 512 512 397.16 512 256C512 114.84 397.16 0 256 0ZM256 480C132.488 480 32 379.512 32 256C32 132.488 132.48 32 256 32C379.512 32 480 132.488 480 256C480 379.512 379.512 480 256 480Z" fill="#0F4C81"/>
<path d="M280.792 127.52C274.992 121.624 267.904 118.672 259.504 118.672C251.216 118.672 244.152 121.624 238.296 127.52C232.448 133.416 229.512 140.496 229.512 148.752C229.512 156.896 232.464 163.912 238.376 169.808C244.288 175.704 251.344 178.656 259.504 178.656C267.776 178.656 274.848 175.744 280.704 169.896C286.56 164.064 289.488 157.016 289.488 148.752C289.488 140.488 286.592 133.416 280.792 127.52Z" fill="#0F4C81"/>
<path d="M286.296 330.216V198H205.376V237.568H231.464V330.216H205.376V369.784H311.848V330.216H286.296Z" fill="#0F4C81"/>
</svg>
