<svg width="176" height="320" viewBox="0 0 176 320" fill="none" xmlns="http://www.w3.org/2000/svg">
<path d="M149.677 0H25.8065C18.9645 0.00768422 12.405 2.72904 7.56702 7.56702C2.72904 12.405 0.00768422 18.9645 0 25.8065V294.194C0.00768422 301.035 2.72904 307.595 7.56702 312.433C12.405 317.271 18.9645 319.992 25.8065 320H149.677C156.519 319.992 163.079 317.271 167.917 312.433C172.755 307.595 175.476 301.035 175.484 294.194V25.8065C175.476 18.9645 172.755 12.405 167.917 7.56702C163.079 2.72904 156.519 0.00768422 149.677 0V0ZM122.737 10.3226L119.64 25.8065H55.8445L52.7477 10.3226H122.737ZM165.161 294.194C165.157 298.299 163.524 302.234 160.621 305.137C157.718 308.04 153.783 309.673 149.677 309.677H25.8065C21.7013 309.673 17.7656 308.04 14.8628 305.137C11.96 302.234 10.3272 298.299 10.3226 294.194V25.8065C10.3272 21.7013 11.96 17.7656 14.8628 14.8628C17.7656 11.96 21.7013 10.3272 25.8065 10.3226H42.22L46.5516 31.98C46.7856 33.15 47.4178 34.2028 48.3406 34.9593C49.2633 35.7157 50.4197 36.1291 51.6129 36.129H123.871C125.064 36.1291 126.221 35.7157 127.143 34.9593C128.066 34.2028 128.698 33.15 128.932 31.98L133.264 10.3226H149.677C153.783 10.3272 157.718 11.96 160.621 14.8628C163.524 17.7656 165.157 21.7013 165.161 25.8065V294.194Z" fill="#0F4C81"/>
<path d="M56.7745 289.032H25.8068C24.4379 289.032 23.1251 289.576 22.1572 290.544C21.1893 291.512 20.6455 292.825 20.6455 294.194C20.6455 295.562 21.1893 296.875 22.1572 297.843C23.1251 298.811 24.4379 299.355 25.8068 299.355H56.7745C58.1434 299.355 59.4562 298.811 60.4241 297.843C61.3921 296.875 61.9358 295.562 61.9358 294.194C61.9358 292.825 61.3921 291.512 60.4241 290.544C59.4562 289.576 58.1434 289.032 56.7745 289.032Z" fill="#0F4C81"/>
<path d="M77.4193 289.032H72.258C70.8891 289.032 69.5763 289.576 68.6084 290.544C67.6405 291.512 67.0967 292.825 67.0967 294.194C67.0967 295.562 67.6405 296.875 68.6084 297.843C69.5763 298.811 70.8891 299.355 72.258 299.355H77.4193C78.7881 299.355 80.1009 298.811 81.0688 297.843C82.0368 296.875 82.5806 295.562 82.5806 294.194C82.5806 292.825 82.0368 291.512 81.0688 290.544C80.1009 289.576 78.7881 289.032 77.4193 289.032Z" fill="#0F4C81"/>
</svg>
