<svg width="485" height="436" viewBox="0 0 485 436" fill="none" xmlns="http://www.w3.org/2000/svg">
<path d="M477.406 103.784H6.91902C5.75797 103.784 4.61559 103.492 3.59711 102.934C2.57863 102.377 1.7168 101.572 1.09101 100.594C0.465227 99.6161 0.0956071 98.4964 0.0162017 97.3381C-0.0632036 96.1797 0.15016 95.02 0.636637 93.9658L42.1502 4.01989C42.704 2.81975 43.59 1.80336 44.7033 1.09096C45.8167 0.378567 47.1108 -1.81955e-05 48.4325 6.55899e-10H435.892C437.214 -1.81955e-05 438.508 0.378567 439.621 1.09096C440.735 1.80336 441.621 2.81975 442.174 4.01989L483.688 93.9658C484.174 95.02 484.388 96.1797 484.308 97.3381C484.229 98.4964 483.859 99.6161 483.234 100.594C482.608 101.572 481.746 102.377 480.727 102.934C479.709 103.492 478.567 103.784 477.406 103.784V103.784ZM17.7333 89.9459H466.591L431.464 13.8378H52.8606L17.7333 89.9459Z" fill="#0F4C81"/>
<path d="M40.5241 186.811C29.7804 186.798 19.4804 182.524 11.8834 174.928C4.28643 167.331 0.0128174 157.031 0 146.287V96.865C0 95.03 0.728955 93.2701 2.0265 91.9725C3.32405 90.675 5.08391 89.946 6.91892 89.946H74.1293C75.9643 89.946 77.7242 90.675 79.0217 91.9725C80.3193 93.2701 81.0482 95.03 81.0482 96.865V146.287C81.0354 157.031 76.7618 167.331 69.1648 174.928C61.5679 182.524 51.2678 186.798 40.5241 186.811V186.811ZM13.8378 103.784V146.287C13.8378 153.364 16.6494 160.152 21.6541 165.157C26.6587 170.161 33.4465 172.973 40.5241 172.973C47.6017 172.973 54.3895 170.161 59.3941 165.157C64.3988 160.152 67.2104 153.364 67.2104 146.287V103.784H13.8378Z" fill="#0F4C81"/>
<path d="M107.735 186.811C96.9913 186.798 86.6913 182.524 79.0943 174.928C71.4974 167.331 67.2238 157.031 67.2109 146.287V96.865C67.2109 95.03 67.9399 93.2701 69.2374 91.9725C70.535 90.675 72.2948 89.946 74.1299 89.946H141.34C143.175 89.946 144.935 90.675 146.233 91.9725C147.53 93.2701 148.259 95.03 148.259 96.865V146.287C148.246 157.031 143.973 167.331 136.376 174.928C128.779 182.524 118.479 186.798 107.735 186.811ZM81.0488 103.784V146.287C81.0488 153.364 83.8604 160.152 88.865 165.157C93.8697 170.161 100.657 172.973 107.735 172.973C114.813 172.973 121.6 170.161 126.605 165.157C131.61 160.152 134.421 153.364 134.421 146.287V103.784H81.0488Z" fill="#0F4C81"/>
<path d="M174.952 186.811C164.208 186.798 153.908 182.524 146.311 174.928C138.714 167.331 134.441 157.031 134.428 146.287V96.865C134.428 95.03 135.157 93.2701 136.454 91.9725C137.752 90.675 139.512 89.946 141.347 89.946H208.557C210.392 89.946 212.152 90.675 213.449 91.9725C214.747 93.2701 215.476 95.03 215.476 96.865V146.287C215.463 157.031 211.19 167.331 203.593 174.928C195.996 182.524 185.696 186.798 174.952 186.811ZM148.266 103.784V146.287C148.266 153.364 151.077 160.152 156.082 165.157C161.086 170.161 167.874 172.973 174.952 172.973C182.029 172.973 188.817 170.161 193.822 165.157C198.827 160.152 201.638 153.364 201.638 146.287V103.784H148.266Z" fill="#0F4C81"/>
<path d="M242.162 186.811C231.418 186.798 221.118 182.524 213.521 174.928C205.924 167.331 201.651 157.031 201.638 146.287V96.865C201.638 95.03 202.367 93.2701 203.664 91.9725C204.962 90.675 206.722 89.946 208.557 89.946H275.767C277.602 89.946 279.362 90.675 280.659 91.9725C281.957 93.2701 282.686 95.03 282.686 96.865V146.287C282.673 157.031 278.399 167.331 270.803 174.928C263.206 182.524 252.906 186.798 242.162 186.811V186.811ZM215.476 103.784V146.287C215.476 153.364 218.287 160.152 223.292 165.157C228.296 170.161 235.084 172.973 242.162 172.973C249.239 172.973 256.027 170.161 261.032 165.157C266.036 160.152 268.848 153.364 268.848 146.287V103.784H215.476Z" fill="#0F4C81"/>
<path d="M309.373 186.811C298.629 186.798 288.329 182.524 280.732 174.928C273.135 167.331 268.861 157.031 268.849 146.287V96.865C268.849 95.03 269.578 93.2701 270.875 91.9725C272.173 90.675 273.933 89.946 275.768 89.946H342.978C344.813 89.946 346.573 90.675 347.87 91.9725C349.168 93.2701 349.897 95.03 349.897 96.865V146.287C349.884 157.031 345.61 167.331 338.013 174.928C330.416 182.524 320.116 186.798 309.373 186.811V186.811ZM282.686 103.784V146.287C282.686 153.364 285.498 160.152 290.503 165.157C295.507 170.161 302.295 172.973 309.373 172.973C316.45 172.973 323.238 170.161 328.243 165.157C333.247 160.152 336.059 153.364 336.059 146.287V103.784H282.686Z" fill="#0F4C81"/>
<path d="M376.59 186.811C365.846 186.798 355.546 182.524 347.949 174.928C340.352 167.331 336.078 157.031 336.065 146.287V96.865C336.065 95.03 336.794 93.2701 338.092 91.9725C339.39 90.675 341.149 89.946 342.984 89.946H410.195C412.03 89.946 413.79 90.675 415.087 91.9725C416.385 93.2701 417.114 95.03 417.114 96.865V146.287C417.101 157.031 412.827 167.331 405.23 174.928C397.633 182.524 387.333 186.798 376.59 186.811ZM349.896 103.784V146.287C349.896 153.364 352.708 160.152 357.713 165.157C362.717 170.161 369.505 172.973 376.583 172.973C383.66 172.973 390.448 170.161 395.453 165.157C400.457 160.152 403.269 153.364 403.269 146.287V103.784H349.896Z" fill="#0F4C81"/>
<path d="M443.8 186.811C433.057 186.798 422.757 182.524 415.16 174.928C407.563 167.331 403.289 157.031 403.276 146.287V96.865C403.276 95.03 404.005 93.2701 405.303 91.9725C406.6 90.675 408.36 89.946 410.195 89.946H477.406C479.241 89.946 481.001 90.675 482.298 91.9725C483.596 93.2701 484.325 95.03 484.325 96.865V146.287C484.312 157.031 480.038 167.331 472.441 174.928C464.844 182.524 454.544 186.798 443.8 186.811V186.811ZM417.114 103.784V146.287C417.114 153.364 419.926 160.152 424.93 165.157C429.935 170.161 436.723 172.973 443.8 172.973C450.878 172.973 457.666 170.161 462.671 165.157C467.675 160.152 470.487 153.364 470.487 146.287V103.784H417.114Z" fill="#0F4C81"/>
<path d="M456.648 435.892H27.0527C25.2177 435.892 23.4578 435.163 22.1603 433.865C20.8627 432.568 20.1338 430.808 20.1338 428.973V172.973H33.9716V422.054H449.729V172.973H463.567V428.973C463.567 430.808 462.838 432.568 461.541 433.865C460.243 435.163 458.483 435.892 456.648 435.892Z" fill="#0F4C81"/>
<path d="M401.297 435.892H283.676C281.841 435.892 280.081 435.163 278.783 433.865C277.486 432.568 276.757 430.808 276.757 428.973V235.243C276.757 233.408 277.486 231.648 278.783 230.351C280.081 229.053 281.841 228.324 283.676 228.324H401.297C403.132 228.324 404.892 229.053 406.19 230.351C407.487 231.648 408.216 233.408 408.216 235.243V428.973C408.216 430.808 407.487 432.568 406.19 433.865C404.892 435.163 403.132 435.892 401.297 435.892ZM290.595 422.054H394.378V242.162H290.595V422.054Z" fill="#0F4C81"/>
<path d="M242.162 377.081H69.1894C67.3544 377.081 65.5946 376.352 64.297 375.054C62.9995 373.757 62.2705 371.997 62.2705 370.162V231.784C62.2705 229.949 62.9995 228.189 64.297 226.891C65.5946 225.594 67.3544 224.865 69.1894 224.865H242.162C243.997 224.865 245.757 225.594 247.055 226.891C248.352 228.189 249.081 229.949 249.081 231.784V370.162C249.081 371.997 248.352 373.757 247.055 375.054C245.757 376.352 243.997 377.081 242.162 377.081ZM76.1083 363.243H235.243V238.703H76.1083V363.243Z" fill="#0F4C81"/>
</svg>
