<svg width="496" height="447" viewBox="0 0 496 447" fill="none" xmlns="http://www.w3.org/2000/svg">
<path d="M488.914 106.286H7.08581C5.89678 106.286 4.72686 105.986 3.68383 105.416C2.64079 104.845 1.75819 104.021 1.11732 103.019C0.476443 102.018 0.0979118 100.871 0.0165923 99.6846C-0.0647273 98.4983 0.15378 97.3107 0.651984 96.231L43.1662 4.1168C43.7334 2.88772 44.6408 1.84683 45.781 1.11726C46.9211 0.387692 48.2465 -1.86341e-05 49.6001 6.71711e-10H446.4C447.754 -1.86341e-05 449.079 0.387692 450.219 1.11726C451.359 1.84683 452.267 2.88772 452.834 4.1168L495.348 96.231C495.846 97.3107 496.065 98.4983 495.983 99.6846C495.902 100.871 495.524 102.018 494.883 103.019C494.242 104.021 493.359 104.845 492.316 105.416C491.273 105.986 490.103 106.286 488.914 106.286V106.286ZM18.1608 92.1142H477.839L441.865 14.1714H54.1349L18.1608 92.1142Z" fill="#C4C4C4"/>
<path d="M41.501 191.314C30.4983 191.301 19.95 186.924 12.1699 179.144C4.38976 171.364 0.0131264 160.816 0 149.813V99.2C0 97.3207 0.746528 95.5184 2.07536 94.1896C3.40418 92.8608 5.20646 92.1143 7.08571 92.1143H75.9163C77.7956 92.1143 79.5978 92.8608 80.9267 94.1896C82.2555 95.5184 83.002 97.3207 83.002 99.2V149.813C82.9889 160.816 78.6123 171.364 70.8322 179.144C63.052 186.924 52.5037 191.301 41.501 191.314V191.314ZM14.1714 106.286V149.813C14.1714 157.061 17.0508 164.013 22.1761 169.138C27.3014 174.263 34.2528 177.143 41.501 177.143C48.7493 177.143 55.7007 174.263 60.8259 169.138C65.9512 164.013 68.8306 157.061 68.8306 149.813V106.286H14.1714Z" fill="#C4C4C4"/>
<path d="M110.332 191.314C99.3293 191.301 88.781 186.924 81.0009 179.144C73.2208 171.364 68.8442 160.816 68.8311 149.813V99.2C68.8311 97.3207 69.5776 95.5184 70.9064 94.1896C72.2352 92.8608 74.0375 92.1143 75.9168 92.1143H144.747C146.627 92.1143 148.429 92.8608 149.758 94.1896C151.087 95.5184 151.833 97.3207 151.833 99.2V149.813C151.82 160.816 147.443 171.364 139.663 179.144C131.883 186.924 121.335 191.301 110.332 191.314ZM83.0025 106.286V149.813C83.0025 157.061 85.8818 164.013 91.0071 169.138C96.1324 174.263 103.084 177.143 110.332 177.143C117.58 177.143 124.532 174.263 129.657 169.138C134.782 164.013 137.662 157.061 137.662 149.813V106.286H83.0025Z" fill="#C4C4C4"/>
<path d="M179.169 191.314C168.166 191.301 157.618 186.924 149.838 179.144C142.058 171.364 137.681 160.816 137.668 149.813V99.2C137.668 97.3207 138.414 95.5184 139.743 94.1896C141.072 92.8608 142.874 92.1143 144.754 92.1143H213.584C215.464 92.1143 217.266 92.8608 218.595 94.1896C219.923 95.5184 220.67 97.3207 220.67 99.2V149.813C220.657 160.816 216.28 171.364 208.5 179.144C200.72 186.924 190.172 191.301 179.169 191.314ZM151.839 106.286V149.813C151.839 157.061 154.719 164.013 159.844 169.138C164.969 174.263 171.921 177.143 179.169 177.143C186.417 177.143 193.369 174.263 198.494 169.138C203.619 164.013 206.499 157.061 206.499 149.813V106.286H151.839Z" fill="#C4C4C4"/>
<path d="M248 191.314C236.997 191.301 226.449 186.924 218.669 179.144C210.889 171.364 206.512 160.816 206.499 149.813V99.2C206.499 97.3207 207.246 95.5184 208.574 94.1896C209.903 92.8608 211.706 92.1143 213.585 92.1143H282.415C284.295 92.1143 286.097 92.8608 287.426 94.1896C288.755 95.5184 289.501 97.3207 289.501 99.2V149.813C289.488 160.816 285.111 171.364 277.331 179.144C269.551 186.924 259.003 191.301 248 191.314V191.314ZM220.67 106.286V149.813C220.67 157.061 223.55 164.013 228.675 169.138C233.8 174.263 240.752 177.143 248 177.143C255.248 177.143 262.2 174.263 267.325 169.138C272.45 164.013 275.33 157.061 275.33 149.813V106.286H220.67Z" fill="#C4C4C4"/>
<path d="M316.83 191.314C305.827 191.301 295.279 186.924 287.499 179.144C279.719 171.364 275.342 160.816 275.329 149.813V99.2C275.329 97.3207 276.076 95.5184 277.404 94.1896C278.733 92.8608 280.536 92.1143 282.415 92.1143H351.245C353.125 92.1143 354.927 92.8608 356.256 94.1896C357.585 95.5184 358.331 97.3207 358.331 99.2V149.813C358.318 160.816 353.941 171.364 346.161 179.144C338.381 186.924 327.833 191.301 316.83 191.314V191.314ZM289.501 106.286V149.813C289.501 157.061 292.38 164.013 297.505 169.138C302.63 174.263 309.582 177.143 316.83 177.143C324.078 177.143 331.03 174.263 336.155 169.138C341.28 164.013 344.16 157.061 344.16 149.813V106.286H289.501Z" fill="#C4C4C4"/>
<path d="M385.668 191.314C374.665 191.301 364.117 186.924 356.337 179.144C348.557 171.364 344.18 160.816 344.167 149.813V99.2C344.167 97.3207 344.914 95.5184 346.242 94.1896C347.571 92.8608 349.373 92.1143 351.253 92.1143H420.083C421.963 92.1143 423.765 92.8608 425.094 94.1896C426.422 95.5184 427.169 97.3207 427.169 99.2V149.813C427.156 160.816 422.779 171.364 414.999 179.144C407.219 186.924 396.671 191.301 385.668 191.314ZM358.331 106.286V149.813C358.331 157.061 361.211 164.013 366.336 169.138C371.461 174.263 378.413 177.143 385.661 177.143C392.909 177.143 399.861 174.263 404.986 169.138C410.111 164.013 412.991 157.061 412.991 149.813V106.286H358.331Z" fill="#C4C4C4"/>
<path d="M454.499 191.314C443.496 191.301 432.948 186.924 425.168 179.144C417.388 171.364 413.011 160.816 412.998 149.813V99.2C412.998 97.3207 413.745 95.5184 415.073 94.1896C416.402 92.8608 418.205 92.1143 420.084 92.1143H488.914C490.794 92.1143 492.596 92.8608 493.925 94.1896C495.254 95.5184 496 97.3207 496 99.2V149.813C495.987 160.816 491.61 171.364 483.83 179.144C476.05 186.924 465.502 191.301 454.499 191.314V191.314ZM427.169 106.286V149.813C427.169 157.061 430.049 164.013 435.174 169.138C440.299 174.263 447.251 177.143 454.499 177.143C461.747 177.143 468.699 174.263 473.824 169.138C478.949 164.013 481.829 157.061 481.829 149.813V106.286H427.169Z" fill="#C4C4C4"/>
<path d="M467.657 446.4H27.7049C25.8256 446.4 24.0233 445.653 22.6945 444.324C21.3657 442.996 20.6191 441.193 20.6191 439.314V177.143H34.7906V432.228H460.571V177.143H474.742V439.314C474.742 441.193 473.996 442.996 472.667 444.324C471.338 445.653 469.536 446.4 467.657 446.4Z" fill="#C4C4C4"/>
<path d="M410.972 446.4H290.514C288.635 446.4 286.833 445.653 285.504 444.324C284.175 442.996 283.429 441.193 283.429 439.314V240.914C283.429 239.035 284.175 237.233 285.504 235.904C286.833 234.575 288.635 233.828 290.514 233.828H410.972C412.851 233.828 414.653 234.575 415.982 235.904C417.311 237.233 418.057 239.035 418.057 240.914V439.314C418.057 441.193 417.311 442.996 415.982 444.324C414.653 445.653 412.851 446.4 410.972 446.4ZM297.6 432.228H403.886V248H297.6V432.228Z" fill="#C4C4C4"/>
<path d="M248 386.171H70.8572C68.9779 386.171 67.1757 385.425 65.8468 384.096C64.518 382.767 63.7715 380.965 63.7715 379.086V237.371C63.7715 235.492 64.518 233.69 65.8468 232.361C67.1757 231.032 68.9779 230.286 70.8572 230.286H248C249.879 230.286 251.682 231.032 253.01 232.361C254.339 233.69 255.086 235.492 255.086 237.371V379.086C255.086 380.965 254.339 382.767 253.01 384.096C251.682 385.425 249.879 386.171 248 386.171ZM77.9429 372H240.914V244.457H77.9429V372Z" fill="#C4C4C4"/>
</svg>
